<svg width="48" height="48" viewBox="0 0 48 48" xmlns="http://www.w3.org/2000/svg">
<path d="M30.6177 21.5112C29.1089 21.5112 27.8813 22.7388 27.8813 24.2476C27.8813 25.7563 29.1089 26.984 30.6177 26.984C32.1265 26.984 33.3541 25.7564 33.3541 24.2476C33.3541 22.7388 32.1265 21.5112 30.6177 21.5112ZM30.6177 25.5751C29.8857 25.5751 29.2902 24.9796 29.2902 24.2476C29.2902 23.5156 29.8857 22.9201 30.6177 22.9201C31.3497 22.9201 31.9452 23.5156 31.9452 24.2476C31.9451 24.9796 31.3496 25.5751 30.6177 25.5751Z"></path>
<path d="M17.3721 21.5112C15.8634 21.5112 14.6357 22.7388 14.6357 24.2476C14.6357 25.7564 15.8633 26.984 17.3721 26.984C18.8809 26.984 20.1085 25.7564 20.1085 24.2476C20.1085 22.7388 18.8808 21.5112 17.3721 21.5112ZM17.3721 25.5751C16.6401 25.5751 16.0446 24.9796 16.0446 24.2476C16.0446 23.5156 16.6401 22.9201 17.3721 22.9201C18.1041 22.9201 18.6996 23.5156 18.6996 24.2476C18.6995 24.9796 18.1041 25.5751 17.3721 25.5751Z"></path>
<path d="M35.6575 17.2456C34.1846 15.8371 32.3157 15.081 30.3868 15.1222C29.9979 15.1301 29.689 15.4519 29.6969 15.8408C29.7047 16.2249 30.0185 16.5309 30.4009 16.5309C30.4057 16.5309 30.4106 16.5308 30.4155 16.5307C31.9629 16.5019 33.482 17.1147 34.6837 18.2637C34.8202 18.3943 34.9954 18.4591 35.1705 18.4591C35.7992 18.4591 36.119 17.687 35.6575 17.2456Z"></path>
<path d="M17.6023 15.1223C15.6758 15.0801 13.8044 15.837 12.3316 17.2457C12.0504 17.5145 12.0404 17.9605 12.3095 18.2417C12.578 18.5228 13.024 18.533 13.3055 18.2638C14.507 17.1147 16.0257 16.5004 17.5736 16.5308C17.9661 16.5387 18.2843 16.2299 18.2922 15.8409C18.3001 15.4519 17.9912 15.1302 17.6023 15.1223Z"></path>
<path d="M29.2328 33.3056C26.1239 30.979 21.8616 30.9723 18.7451 33.317C17.4278 34.3083 18.1378 36.4083 19.7859 36.4083H28.2077C29.8667 36.4083 30.5598 34.2983 29.2328 33.3056ZM28.2076 34.9995H19.7858C19.4891 34.9995 19.3539 34.622 19.592 34.4429C21.926 32.687 25.0907 32.4697 27.6575 33.9517C27.9106 34.0979 28.1566 34.2599 28.3889 34.4338C28.6329 34.6162 28.513 34.9995 28.2076 34.9995Z"></path>
<path d="M37.1757 3.94275C29.7229 -0.946857 20.0009 -1.40342 11.9963 3.21797C-2.24524 11.4402 -4.14236 31.1928 8.12366 42.0067C8.41616 42.2645 8.86128 42.2353 9.11797 41.9442C9.37522 41.6523 9.34718 41.2071 9.05544 40.9499C7.22151 39.333 5.66629 37.43 4.43292 35.2939C-1.80883 24.4826 1.888 10.6809 12.7007 4.43812C20.2475 0.0811075 29.3981 0.525105 36.403 5.12071C36.7282 5.33409 37.1649 5.24343 37.3784 4.91821C37.5917 4.59281 37.501 4.15622 37.1757 3.94275Z"></path>
<path d="M39.8711 5.99795C39.5794 5.7406 39.1341 5.76845 38.8769 6.0602C38.6195 6.35185 38.6474 6.79716 38.9391 7.05441C50.522 17.2724 48.6488 35.8483 35.2887 43.5618C27.7587 47.9092 18.6101 47.4842 11.5921 42.8827C11.2668 42.6695 10.8302 42.7602 10.6166 43.0856C10.4033 43.411 10.4942 43.8476 10.8195 44.0611C18.3167 48.9765 28.0362 49.3758 35.9931 44.7819C50.0884 36.6441 52.2726 16.9372 39.8711 5.99795Z"></path>
</svg>
