<svg width="48" height="48" viewBox="0 0 48 48" xmlns="http://www.w3.org/2000/svg">
<path d="M34.3915 18.8796C32.7408 18.6786 31.3036 17.8961 30.3449 16.6763C30.1049 16.3709 29.6629 16.3182 29.3575 16.558C29.0522 16.798 28.9993 17.24 29.2392 17.5454C30.4295 19.0598 32.199 20.0293 34.2216 20.2756C34.6105 20.3227 34.9578 20.0453 35.0045 19.6627C35.0515 19.2772 34.7771 18.9265 34.3915 18.8796Z"></path>
<path d="M18.6571 16.5581C18.3518 16.3182 17.9098 16.371 17.6699 16.6764C16.7111 17.8963 15.274 18.6786 13.6231 18.8796C13.2376 18.9266 12.9631 19.2771 13.0101 19.6626C13.0568 20.0461 13.4051 20.3224 13.793 20.2756C15.8159 20.0293 17.5853 19.0597 18.7755 17.5454C19.0154 17.24 18.9625 16.798 18.6571 16.5581Z"></path>
<path d="M33.0668 26.6152C30.5855 24.9397 30.1418 24.7834 30.1418 24.5685C30.1418 24.3651 30.5818 24.1898 31.8081 23.3337C32.1307 23.1175 32.2168 22.6807 32.0006 22.3581C31.7845 22.0354 31.3474 21.9494 31.0251 22.1656L29.5632 23.1453C28.4597 23.8852 28.4575 25.2501 29.5681 25.9948C32.3567 27.7839 32.3063 27.9056 32.6794 27.9056C33.3754 27.9057 33.6481 26.9981 33.0668 26.6152Z"></path>
<path d="M17.5308 24.8144C17.5403 24.8077 17.5375 24.8096 17.5308 24.8144V24.8144Z"></path>
<path d="M18.3247 23.1317L16.863 22.1519C16.5405 21.9357 16.1037 22.0218 15.8873 22.3444C15.6711 22.6669 15.7573 23.1038 16.0799 23.32L17.5416 24.2998C17.8095 24.4795 17.8106 24.6294 17.5416 24.8097C17.4706 24.857 17.5131 24.8265 17.5304 24.8143C17.4786 24.8508 17.0628 25.1429 14.9328 26.6255C14.6141 26.8473 14.5356 27.2855 14.7574 27.6042C14.9805 27.9247 15.4189 28.0006 15.7363 27.7796L18.3301 25.9741C19.4279 25.2339 19.4275 23.8709 18.3247 23.1317Z"></path>
<path d="M33.1208 36.2714C33.1137 36.2061 33.1002 36.1373 33.0827 36.0749C32.703 34.7298 32.069 33.4801 31.239 32.416C30.9746 32.0766 30.6861 31.7503 30.3595 31.4289C30.1706 31.2427 29.9778 31.0679 29.8035 30.9209C29.5882 30.7391 29.3717 30.5723 29.1615 30.4218C29.108 30.3842 29.0684 30.3563 29.0424 30.3406C25.4558 27.8861 20.8584 28.3782 17.7751 31.3119C16.0585 32.9475 14.9226 35.5124 14.8871 36.3585C14.8499 37.1703 15.6013 37.7999 16.3727 37.563C19.2299 36.6851 22.6875 36.3344 26.1076 36.5759C26.4935 36.6026 26.8312 36.3114 26.8586 35.924C26.8859 35.5366 26.5941 35.2005 26.2067 35.1731C22.7896 34.9322 19.3269 35.2571 16.3977 36.0893C16.7084 35.1368 17.1639 34.2537 17.7377 33.4743C21.6842 32.5444 26.3315 32.5445 30.2775 33.4743C30.8513 34.2538 31.3069 35.137 31.6177 36.0894C30.9665 35.9046 30.28 35.7428 29.5711 35.607C29.1889 35.5343 28.8213 35.7839 28.7483 36.1652C28.6752 36.5466 28.9253 36.915 29.3066 36.9881C31.2589 37.3619 31.5684 37.6127 31.9732 37.6127C32.1972 37.6127 32.4181 37.5451 32.6089 37.4143C32.9787 37.1601 33.1731 36.71 33.1208 36.2714ZM19.4818 31.7069C22.198 29.6687 25.8117 29.6646 28.5332 31.7068C25.5921 31.2599 22.4229 31.26 19.4818 31.7069Z"></path>
<path d="M39.1431 5.37374C38.8417 5.12877 38.3989 5.1748 38.154 5.47621C37.9092 5.77761 37.9551 6.22039 38.2565 6.46527C50.4524 16.3722 49.0886 35.6029 35.3019 43.5625C27.4778 48.08 17.7401 47.5088 10.4941 42.1074C10.1829 41.8751 9.74227 41.9394 9.51005 42.2508C9.27793 42.5621 9.34224 43.0027 9.65358 43.2347C17.3576 48.9779 27.7014 49.5743 36.005 44.7803C50.6772 36.3094 52.0788 15.8809 39.1431 5.37374Z"></path>
<path d="M36.3688 3.42944C22.7473 -4.73945 4.97162 2.3322 0.829944 17.789C-1.48915 26.4441 1.22107 35.1846 7.0929 41.025C7.23006 41.1615 7.4094 41.2297 7.58874 41.2297C8.20909 41.2297 8.53215 40.473 8.08459 40.028C2.56244 34.5352 0.00213266 26.312 2.18828 18.153C6.08968 3.59276 22.828 -3.05129 35.6455 4.63535C35.9785 4.83504 36.4104 4.72722 36.6102 4.39404C36.81 4.06094 36.7019 3.62913 36.3688 3.42944Z"></path>
</svg>
