<svg width="48" height="48" viewBox="0 0 48 48" xmlns="http://www.w3.org/2000/svg">
<path d="M33.8283 29.994C33.4736 29.8337 33.0565 29.9911 32.8963 30.3454C29.436 37.9942 18.5665 37.9691 15.0987 30.3441C14.9375 29.9901 14.5202 29.8333 14.1661 29.9946C13.812 30.1557 13.6555 30.5733 13.8166 30.9273C17.8206 39.7284 30.2651 39.5786 34.1796 30.926C34.34 30.5716 34.1826 30.1544 33.8283 29.994Z"></path>
<path d="M37.5536 20.5654C36.1935 20.5654 35.0869 21.672 35.0869 23.032C35.0869 24.392 36.1934 25.4986 37.5536 25.4986C38.9137 25.4986 40.0201 24.392 40.0201 23.032C40.0201 21.6719 38.9137 20.5654 37.5536 20.5654ZM37.5536 24.0901C36.9701 24.0901 36.4954 23.6154 36.4954 23.032C36.4954 22.4486 36.9701 21.9739 37.5536 21.9739C38.137 21.9739 38.6116 22.4486 38.6116 23.032C38.6115 23.6154 38.1369 24.0901 37.5536 24.0901Z"></path>
<path d="M10.6438 20.5649C9.28369 20.5649 8.17725 21.6715 8.17725 23.0315C8.17725 24.3916 9.28369 25.4981 10.6438 25.4981C12.0039 25.4981 13.1105 24.3916 13.1105 23.0315C13.1106 21.6715 12.004 20.5649 10.6438 20.5649ZM10.6437 24.0898C10.0603 24.0898 9.58566 23.6151 9.58566 23.0317C9.58575 22.4482 10.0603 21.9736 10.6437 21.9736C11.2272 21.9736 11.7019 22.4483 11.7019 23.0317C11.7019 23.6151 11.2272 24.0898 10.6437 24.0898Z"></path>
<path d="M32.8831 19.732L31.9034 18.2706C31.5505 17.7443 31.0316 17.4424 30.4797 17.4424C29.9277 17.4424 29.4088 17.7443 29.0559 18.2706L28.0762 19.732C27.8595 20.055 27.9459 20.4925 28.269 20.7091C28.592 20.9259 29.0295 20.8393 29.2461 20.5164L30.2258 19.055C30.4005 18.7944 30.5492 18.7799 30.7336 19.055L31.7132 20.5164C31.931 20.8412 32.369 20.9247 32.6903 20.7091C33.0133 20.4925 33.0996 20.055 32.8831 19.732Z"></path>
<path d="M19.9199 19.7178L18.9403 18.2564C18.1992 17.151 16.8323 17.1533 16.0927 18.2564L15.113 19.7178C14.8964 20.041 14.9828 20.4784 15.3059 20.695C15.6291 20.9117 16.0666 20.8252 16.283 20.5022C17.8541 18.284 17.1789 18.284 18.7499 20.5022C18.9677 20.8271 19.4057 20.9106 19.727 20.695C20.0502 20.4784 20.1364 20.0409 19.9199 19.7178Z"></path>
<path d="M30.22 0.831011C24.0364 -0.829398 17.5753 0.0157596 12.0273 3.21058C11.6902 3.40464 11.5743 3.83524 11.7684 4.17227C11.9625 4.50939 12.3933 4.62527 12.7301 4.43111C17.9525 1.42379 24.0341 0.628511 29.8548 2.19133C46.6792 6.70896 52.2696 27.8584 39.8596 40.0818C39.5824 40.3548 39.5791 40.8006 39.852 41.0777C40.1247 41.3546 40.5706 41.3585 40.8479 41.0853C54.0359 28.0957 48.0908 5.62961 30.22 0.831011Z"></path>
<path d="M38.4086 42.3076C38.1776 41.9947 37.7366 41.928 37.4238 42.1589C26.5189 50.2003 11.1614 46.9308 4.44165 35.2918C-1.21027 25.5022 1.2728 13.0867 10.0855 6.21223C10.3922 5.97307 10.4468 5.53048 10.2077 5.22372C9.96822 4.91707 9.52553 4.86241 9.21915 5.10166C4.69927 8.62751 1.59117 13.6811 0.467201 19.3315C-0.667551 25.0355 0.310638 30.9537 3.22177 35.9961C10.3334 48.3135 26.6328 51.8674 38.2597 43.2925C38.5728 43.0617 38.6394 42.6208 38.4086 42.3076Z"></path>
</svg>
