<svg width="48" height="48" viewBox="0 0 48 48" xmlns="http://www.w3.org/2000/svg">
<path d="M32.7813 23.6147C32.6609 23.246 32.2646 23.0447 31.8953 23.1649C31.0108 23.4537 29.7787 23.0302 29.2589 22.2587C29.0421 21.9371 28.6054 21.8518 28.2836 22.0688C27.9619 22.2855 27.8768 22.7222 28.0937 23.0439C28.9736 24.3497 30.835 24.9893 32.3314 24.5006C32.7004 24.3802 32.9016 23.9835 32.7813 23.6147Z"></path>
<path d="M19.6721 22.0687C19.3506 21.852 18.9137 21.9369 18.6969 22.2586C18.1769 23.0302 16.9452 23.4539 16.0605 23.1649C15.6915 23.0447 15.2949 23.2458 15.1745 23.6147C15.0541 23.9836 15.2554 24.3802 15.6243 24.5007C17.1239 24.9901 18.9839 24.347 19.8621 23.044C20.0788 22.7221 19.9936 22.2855 19.6721 22.0687Z"></path>
<path d="M34.3525 18.8841C32.7034 18.6833 31.2674 17.9016 30.3095 16.683C30.0697 16.3778 29.6281 16.3251 29.3231 16.5647C29.018 16.8046 28.9652 17.2461 29.2049 17.5512C30.394 19.0642 32.1618 20.0329 34.1826 20.2789C34.2115 20.2824 34.24 20.2842 34.2684 20.2842C34.6185 20.2842 34.9215 20.0227 34.9649 19.6665C35.0119 19.2813 34.7376 18.931 34.3525 18.8841Z"></path>
<path d="M18.6328 16.5648C18.3278 16.325 17.886 16.3779 17.6464 16.683C16.6886 17.9018 15.2528 18.6834 13.6035 18.8842C13.2184 18.9312 12.9442 19.2813 12.9911 19.6665C13.0378 20.0497 13.3857 20.3258 13.7734 20.279C15.7943 20.0329 17.562 19.0642 18.7511 17.5514C18.9908 17.2462 18.9379 16.8046 18.6328 16.5648Z"></path>
<path d="M42.082 8.2796C41.8279 7.98635 41.3843 7.95467 41.091 8.20863C40.7978 8.46279 40.766 8.90632 41.0201 9.19966C50.3567 19.9755 47.5047 36.4757 35.2622 43.5437C26.9116 48.3649 16.4185 47.3512 9.15187 41.0212C8.85909 40.7664 8.41556 40.7968 8.16065 41.0894C7.90574 41.382 7.93631 41.8257 8.2289 42.0806C12.6987 45.9742 18.3161 47.9741 23.9767 47.9741C44.2541 47.974 55.6794 23.9742 42.082 8.2796Z"></path>
<path d="M39.6937 5.8891C31.9768 -0.808103 20.8441 -1.87338 11.9912 3.23767C-1.06584 10.7761 -3.98821 28.2936 5.8453 39.6853C6.09805 39.978 6.54139 40.0123 6.83624 39.758C7.12986 39.5044 7.16239 39.0609 6.90889 38.7672C-2.36643 28.0225 0.42731 11.5362 12.6937 4.45435C21.0278 -0.357355 31.5084 0.645487 38.7727 6.95016C39.0656 7.20441 39.5094 7.17319 39.7637 6.88013C40.018 6.58698 39.9866 6.14335 39.6937 5.8891Z"></path>
<path d="M29.008 30.3674C25.7659 28.1487 20.7762 28.2036 17.4643 31.6218C15.9594 33.1771 14.9002 35.5751 14.866 36.3763C14.8237 37.1789 15.5727 37.8225 16.35 37.5831C18.9931 36.771 22.2027 36.4065 25.3876 36.5564C25.7755 36.5765 26.104 36.2753 26.1223 35.8877C26.1406 35.5002 25.8413 35.1712 25.4536 35.1529C22.2836 35.0035 19.0806 35.3431 16.3748 36.1109C16.6853 35.1592 17.1404 34.277 17.7135 33.4984C21.6562 32.5693 26.299 32.5692 30.2416 33.4983C30.8151 34.2771 31.2701 35.1594 31.5804 36.1109C30.7043 35.8623 29.7694 35.6565 28.7946 35.4981C28.4108 35.4372 28.0508 35.6959 27.9885 36.0789C27.9264 36.4619 28.1863 36.8227 28.5693 36.885C29.6452 37.0597 30.6667 37.2947 31.6054 37.583C32.3889 37.8247 33.1339 37.1675 33.0897 36.3825C33.0341 35.021 31.0594 31.6273 29.008 30.3674ZM19.4561 31.7327C22.16 29.7035 25.7734 29.6871 28.4993 31.7325C25.5609 31.2862 22.3946 31.2862 19.4561 31.7327Z"></path>
</svg>
