<svg width="48" height="48" viewBox="0 0 48 48" xmlns="http://www.w3.org/2000/svg">
<path d="M30.6314 16.5117C29.1229 16.5117 27.8958 17.7389 27.8958 19.2473C27.8958 20.7558 29.1229 21.983 30.6314 21.983C32.1398 21.983 33.3671 20.7558 33.3671 19.2473C33.3671 17.7389 32.1399 16.5117 30.6314 16.5117ZM30.6313 20.5745C29.8995 20.5745 29.3042 19.9792 29.3042 19.2473C29.3042 18.5155 29.8995 17.9202 30.6313 17.9202C31.3631 17.9202 31.9585 18.5155 31.9585 19.2473C31.9585 19.9792 31.363 20.5745 30.6313 20.5745Z"></path>
<path d="M17.389 16.5117C15.8806 16.5117 14.6533 17.7389 14.6533 19.2473C14.6533 20.7558 15.8805 21.983 17.389 21.983C18.8974 21.983 20.1247 20.7558 20.1247 19.2473C20.1247 17.7389 18.8975 16.5117 17.389 16.5117ZM17.389 20.5745C16.6571 20.5745 16.0618 19.9792 16.0618 19.2473C16.0618 18.5155 16.6571 17.9202 17.389 17.9202C18.1208 17.9202 18.7162 18.5155 18.7162 19.2473C18.7162 19.9792 18.1208 20.5745 17.389 20.5745Z"></path>
<path d="M38.3912 27.3955H9.62537C9.05481 27.3954 8.53028 27.6565 8.18631 28.1118C7.60103 28.8866 7.85799 29.6134 8.02103 30.1318C9.93212 36.2273 15.1464 40.7669 21.5935 41.7022C29.8455 42.9215 37.8216 37.8212 40.1262 29.6974C40.4536 28.5427 39.5917 27.3955 38.3912 27.3955ZM27.4096 40.0884C23.4559 40.9842 19.4041 40.2481 16.1019 38.2693C17.881 36.4286 20.5609 35.8885 22.8781 36.8282C23.607 37.1237 24.4095 37.1236 25.1379 36.8282C27.4191 35.9032 30.1106 36.4004 31.9179 38.2731C31.5391 38.5007 28.9322 39.7431 27.4096 40.0884ZM38.6462 29.729C38.515 30.1477 38.3501 30.6031 38.1641 31.0479H30.1211C29.7321 31.0479 29.4169 31.3632 29.4169 31.7522C29.4169 32.1411 29.7321 32.4564 30.1211 32.4564H37.4932C36.4236 34.4304 34.9321 36.1425 33.1061 37.4825C31.745 35.9748 29.8548 35.0703 27.8243 34.9761C25.076 34.848 24.5862 36.0009 23.4075 35.5229C20.519 34.3516 17.1152 35.0434 14.9134 37.4788C13.1607 36.1923 11.6509 34.5122 10.5319 32.4565H26.8347C27.2238 32.4565 27.539 32.1412 27.539 31.7523C27.539 31.3633 27.2238 31.048 26.8347 31.048H9.85469C9.61112 30.4679 9.40619 29.879 9.24503 29.3115C9.17247 29.0561 9.36193 28.8039 9.62556 28.8039C39.7821 28.9057 38.4507 28.6233 38.7057 28.9604C38.8597 29.1643 38.7666 29.3472 38.6462 29.729Z"></path>
<path d="M30.2195 0.828452C23.3949 -1.00015 16.4881 0.274201 10.9106 3.90318C10.5845 4.11533 10.4923 4.55146 10.7044 4.87752C10.9165 5.20368 11.3525 5.29584 11.6789 5.08377C16.9305 1.66611 23.4328 0.46817 29.8549 2.18886C47.2442 6.84843 52.4272 29.0764 38.9521 40.9383C38.6603 41.1952 38.6318 41.6403 38.8888 41.9322C39.1458 42.2241 39.5907 42.2525 39.8829 41.9955C54.0941 29.4855 48.7978 5.80649 30.2195 0.828452Z"></path>
<path d="M37.3898 43.0733C37.1765 42.748 36.74 42.6575 36.4146 42.8708C25.416 50.0884 10.8721 46.4097 4.45354 35.2925C-0.924435 25.9773 1.01901 14.0953 9.13496 7.00719C9.42793 6.75135 9.45802 6.30641 9.20209 6.01344C8.94633 5.72047 8.5014 5.69047 8.20843 5.94631C-0.401121 13.4655 -2.48988 26.0829 3.23385 35.9967C10.104 47.8962 25.5816 51.6615 37.1874 44.0485C37.5125 43.8351 37.6031 43.3985 37.3898 43.0733Z"></path>
</svg>
