<svg width="48" height="48" viewBox="0 0 48 48" xmlns="http://www.w3.org/2000/svg">
<path d="M32.5852 22.0923C32.2627 21.8762 31.826 21.9624 31.6101 22.2848C30.8929 23.3546 29.8663 23.3662 29.1414 22.2848C28.9253 21.9623 28.4887 21.8761 28.1663 22.0923C27.8439 22.3085 27.7577 22.745 27.9738 23.0675C29.247 24.967 31.4956 24.9802 32.7777 23.0675C32.9938 22.745 32.9076 22.3084 32.5852 22.0923Z"></path>
<path d="M19.6245 22.1064C19.302 21.8902 18.8652 21.9765 18.6493 22.2988C17.932 23.3687 16.9056 23.3803 16.1805 22.2988C15.9642 21.9763 15.5277 21.8903 15.2053 22.1064C14.8829 22.3225 14.7968 22.7591 15.0129 23.0816C16.2865 24.9815 18.5348 24.9939 19.8168 23.0816C20.033 22.7593 19.9469 22.3226 19.6245 22.1064Z"></path>
<path d="M35.4046 18.4594C35.3023 18.0849 34.9153 17.8643 34.5415 17.9664C32.9379 18.404 31.3123 18.2229 29.9643 17.4563C29.6267 17.2644 29.1977 17.3823 29.0058 17.7198C28.8139 18.0573 28.9319 18.4863 29.2694 18.6782C30.9095 19.6109 32.9086 19.8691 34.9116 19.3225C35.2861 19.2202 35.5068 18.8338 35.4046 18.4594Z"></path>
<path d="M18.986 17.7198C18.7941 17.3822 18.365 17.2644 18.0275 17.4563C16.6796 18.2229 15.054 18.404 13.4503 17.9664C13.0765 17.8642 12.6894 18.0848 12.5873 18.4594C12.485 18.8339 12.7058 19.2204 13.0803 19.3225C13.7757 19.5122 14.4759 19.6062 15.1646 19.6062C16.422 19.6062 17.6413 19.2931 18.7224 18.6782C19.0599 18.4863 19.1778 18.0572 18.986 17.7198Z"></path>
<path d="M29.0544 31.7067C28.7008 31.5468 28.2843 31.7038 28.1244 32.0574C26.5457 35.5475 21.4943 35.6423 19.8662 32.0563C19.7056 31.703 19.2892 31.5465 18.9354 31.7073C18.582 31.8679 18.4258 32.2846 18.5863 32.6379C20.7137 37.3181 27.3278 37.2288 29.4051 32.6368C29.5652 32.2831 29.4081 31.8667 29.0544 31.7067Z"></path>
<path d="M33.7303 45.1706C33.5783 44.8133 33.1649 44.6469 32.8084 44.799C22.3067 49.2663 10.1241 45.1413 4.44137 35.2986C-1.15795 25.6003 1.2024 13.2199 9.99793 6.28972C10.3029 6.04953 10.3553 5.60759 10.115 5.30262C9.87483 4.99765 9.4329 4.94525 9.12802 5.18544C-0.192134 12.5291 -2.73838 25.6743 3.22393 36.0013C9.27558 46.4831 22.228 50.8274 33.3586 46.0924C33.7158 45.9405 33.8822 45.5277 33.7303 45.1706Z"></path>
<path d="M44.7675 12.0156C37.9093 0.137121 22.7371 -3.2481 11.9487 3.26875L11.9204 3.28562C11.5853 3.48137 11.4723 3.91187 11.6681 4.24703C11.864 4.58228 12.2944 4.69515 12.6295 4.4994L12.7059 4.45393C23.5128 -1.78541 37.3096 1.90975 43.5502 12.7187C49.6899 23.3532 46.2162 36.9703 35.6684 43.3353C35.336 43.5359 35.2292 43.9679 35.4297 44.3002C35.6298 44.6317 36.0615 44.7399 36.3947 44.5388C47.52 37.8252 51.336 23.3923 44.7675 12.0156Z"></path>
</svg>
