<svg width="48" height="48" viewBox="0 0 48 48" xmlns="http://www.w3.org/2000/svg">
<path d="M16.615 17.2959C15.0539 17.2959 13.7837 18.8286 13.7837 20.7125C13.7837 22.5964 15.0539 24.1291 16.615 24.1291C18.1763 24.1291 19.4465 22.5964 19.4465 20.7125C19.4464 18.8286 18.1763 17.2959 16.615 17.2959ZM16.615 22.7231C15.8425 22.7231 15.1898 21.8024 15.1898 20.7125C15.1898 19.6227 15.8425 18.702 16.615 18.702C17.3876 18.702 18.0403 19.6227 18.0403 20.7125C18.0403 21.8024 17.3876 22.7231 16.615 22.7231Z"></path>
<path d="M31.3888 17.2959C29.8276 17.2959 28.5574 18.8286 28.5574 20.7125C28.5574 22.5964 29.8276 24.1291 31.3888 24.1291C32.95 24.1292 34.2202 22.5965 34.2202 20.7125C34.2202 18.8285 32.9499 17.2959 31.3888 17.2959ZM31.3888 22.723C30.6162 22.7231 29.9635 21.8023 29.9635 20.7124C29.9635 19.6226 30.6162 18.7019 31.3888 18.7019C32.1613 18.7019 32.814 19.6226 32.814 20.7124C32.814 21.8023 32.1613 22.723 31.3888 22.723Z"></path>
<path d="M32.9364 31.4072H15.0673C14.6789 31.4072 14.3643 31.722 14.3643 32.1103C14.3643 32.4987 14.679 32.8133 15.0673 32.8133H32.9364C33.3248 32.8133 33.6395 32.4986 33.6395 32.1103C33.6396 31.7219 33.3248 31.4072 32.9364 31.4072Z"></path>
<path d="M44.7795 12.0054C38.4168 0.984804 24.5441 -3.1552 13.1971 2.58052C12.8506 2.75565 12.7116 3.17855 12.8868 3.52505C13.0619 3.87165 13.4848 4.01068 13.8314 3.83546C24.5128 -1.56351 37.5717 2.33387 43.5617 12.7085C49.6401 23.2367 46.2641 36.5272 36.248 42.9791C35.9216 43.1893 35.8275 43.6244 36.0377 43.9508C36.2479 44.2769 36.6826 44.3717 37.0095 44.1612C47.6547 37.3037 51.2335 23.1843 44.7795 12.0054Z"></path>
<path d="M34.3892 44.8558C34.2263 44.5034 33.8086 44.35 33.456 44.5127C28.3636 46.8671 22.5994 47.2341 17.2251 45.5458C6.02855 42.0288 -0.624889 30.4962 1.9717 19.0233C3.22196 13.4987 6.46261 8.68368 11.097 5.46515C11.4159 5.24371 11.4948 4.80562 11.2734 4.48668C11.052 4.16793 10.6141 4.08862 10.2949 4.31024C5.37127 7.72977 1.9283 12.8448 0.600236 18.7129C-2.79511 33.7159 8.63958 47.9971 24.0181 47.9971C27.4543 47.997 30.873 47.2562 34.0461 45.7891C34.3986 45.6261 34.5522 45.2083 34.3892 44.8558Z"></path>
</svg>
