<svg width="48" height="48" viewBox="0 0 48 48" xmlns="http://www.w3.org/2000/svg">
<path d="M29.3971 35.1443C27.3249 30.5633 20.6992 30.439 18.5608 35.1432C18.3999 35.4972 18.5565 35.9145 18.9105 36.0754C19.2645 36.2361 19.6818 36.0799 19.8428 35.7257C21.4643 32.1555 26.5208 32.2026 28.1143 35.7245C28.2745 36.0788 28.6915 36.2362 29.0458 36.0758C29.4001 35.9156 29.5574 35.4985 29.3971 35.1443Z"></path>
<path d="M30.5969 21.5151C29.089 21.5151 27.8623 22.7419 27.8623 24.2497C27.8623 25.7575 29.089 26.9843 30.5969 26.9843C32.1048 26.9843 33.3316 25.7576 33.3316 24.2497C33.3316 22.7419 32.1048 21.5151 30.5969 21.5151ZM30.5969 25.5763C29.8654 25.5763 29.2703 24.9812 29.2703 24.2497C29.2703 23.5182 29.8655 22.9232 30.5969 22.9232C31.3283 22.9232 31.9236 23.5183 31.9236 24.2497C31.9236 24.9812 31.3283 25.5763 30.5969 25.5763Z"></path>
<path d="M17.3602 21.5151C15.8523 21.5151 14.6255 22.7419 14.6255 24.2497C14.6255 25.7576 15.8522 26.9843 17.3602 26.9843C18.868 26.9843 20.0948 25.7576 20.0948 24.2497C20.0948 22.7419 18.8681 21.5151 17.3602 21.5151ZM17.3602 25.5763C16.6286 25.5763 16.0335 24.9812 16.0335 24.2497C16.0335 23.5183 16.6287 22.9232 17.3602 22.9232C18.0916 22.9232 18.6867 23.5183 18.6867 24.2497C18.6867 24.9812 18.0916 25.5763 17.3602 25.5763Z"></path>
<path d="M35.6341 17.2525C34.1622 15.845 32.2942 15.0893 30.3668 15.1305C29.9781 15.1384 29.6694 15.4599 29.6774 15.8486C29.6852 16.2324 29.9988 16.5383 30.3809 16.5383C32.0725 16.5383 33.5005 17.1603 34.6609 18.27C34.9418 18.5386 35.3874 18.529 35.6562 18.2479C35.9249 17.9669 35.915 17.5212 35.6341 17.2525Z"></path>
<path d="M17.5906 15.1306C15.6661 15.0884 13.7952 15.8449 12.3234 17.2526C12.0424 17.5212 12.0324 17.9669 12.3013 18.248C12.5696 18.5288 13.0154 18.5391 13.2966 18.2701C14.4751 17.1429 15.9041 16.5383 17.5767 16.5383C17.9588 16.5383 18.2724 16.2325 18.2802 15.8487C18.288 15.46 17.9792 15.1385 17.5906 15.1306Z"></path>
<path d="M38.4092 4.84172C30.7062 -0.954477 20.3351 -1.5856 11.988 3.23391C-2.13351 11.3868 -4.10957 30.8536 7.8237 41.7325C7.9587 41.8556 8.12848 41.9162 8.2978 41.9162C8.93633 41.9162 9.24805 41.1259 8.77227 40.6919C-2.50391 30.4128 -0.551941 12.0996 12.692 4.45332C20.5493 -0.0831627 30.3117 0.510838 37.5627 5.96691C37.8734 6.20072 38.3148 6.13801 38.5485 5.82769C38.7823 5.51691 38.7199 5.07544 38.4092 4.84172Z"></path>
<path d="M44.7471 12.0118C43.7027 10.2027 42.4298 8.53913 40.964 7.06716C40.6895 6.79153 40.2438 6.79069 39.9685 7.0651C39.6929 7.3395 39.692 7.78519 39.9664 8.06063C41.3462 9.44616 42.5445 11.0124 43.5279 12.7158C49.766 23.5202 46.071 37.313 35.2655 43.5517C27.6102 47.9715 18.3109 47.4447 11.2826 42.6731C10.9607 42.4547 10.5231 42.5383 10.3047 42.86C10.0864 43.1817 10.17 43.6196 10.4917 43.8379C14.4749 46.5422 19.1817 47.9876 23.999 47.9876C42.1564 47.9876 54.0767 28.1711 44.7471 12.0118Z"></path>
</svg>
