<svg width="48" height="48" viewBox="0 0 48 48" xmlns="http://www.w3.org/2000/svg">
<path d="M37.4528 21.1299C36.0928 21.1299 34.9863 22.2363 34.9863 23.5964C34.9863 24.9564 36.0928 26.0628 37.4528 26.0628C38.8127 26.0628 39.9194 24.9564 39.9194 23.5964C39.9194 22.2363 38.8128 21.1299 37.4528 21.1299ZM37.4528 24.6542C36.8694 24.6542 36.3948 24.1796 36.3948 23.5963C36.3948 23.0129 36.8695 22.5383 37.4528 22.5383C38.0363 22.5383 38.5109 23.0129 38.5109 23.5963C38.5109 24.1796 38.0362 24.6542 37.4528 24.6542Z"></path>
<path d="M10.5449 21.1299C9.1849 21.1299 8.07837 22.2362 8.07837 23.5964C8.07837 24.9563 9.18481 26.0628 10.5449 26.0628C11.905 26.0628 13.0114 24.9564 13.0114 23.5964C13.0114 22.2363 11.9051 21.1299 10.5449 21.1299ZM10.5449 24.6542C9.96143 24.6542 9.48687 24.1796 9.48687 23.5963C9.48687 23.0129 9.96153 22.5383 10.5449 22.5383C11.1283 22.5383 11.6029 23.0129 11.6029 23.5963C11.6029 24.1796 11.1283 24.6542 10.5449 24.6542Z"></path>
<path d="M32.7828 20.2965C31.5087 18.3956 29.2587 18.3833 27.9763 20.2965C27.7597 20.6195 27.846 21.057 28.1692 21.2736C28.4922 21.4903 28.9298 21.4038 29.1462 21.0808C29.495 20.5605 29.933 20.274 30.3796 20.274C30.8261 20.274 31.2642 20.5605 31.6129 21.0807C31.7488 21.2834 31.9715 21.3929 32.1985 21.3929C32.7533 21.3927 33.099 20.7682 32.7828 20.2965Z"></path>
<path d="M19.8201 20.2824C18.546 18.3816 16.2963 18.3689 15.0136 20.2824C14.7971 20.6053 14.8834 21.0429 15.2065 21.2594C15.5295 21.4761 15.9671 21.3896 16.1834 21.0666C16.8995 19.9985 17.9247 19.9844 18.6503 21.0666C18.8667 21.3897 19.3042 21.4761 19.6272 21.2595C19.9502 21.0429 20.0366 20.6056 19.8201 20.2824Z"></path>
<path d="M35.0469 15.2741C33.2873 14.2474 31.292 13.9496 29.4286 14.4359C29.0523 14.5341 28.8269 14.9188 28.9251 15.295C29.0234 15.6714 29.4083 15.8971 29.7842 15.7985C31.2846 15.407 32.9014 15.6528 34.337 16.4904C34.6729 16.6862 35.1042 16.5733 35.3002 16.2372C35.4961 15.9013 35.3828 15.4701 35.0469 15.2741Z"></path>
<path d="M18.5687 14.4364C16.7052 13.9501 14.7102 14.2478 12.9505 15.2746C12.3315 15.6359 12.5893 16.5873 13.3061 16.5872C13.4266 16.5872 13.5488 16.5561 13.6603 16.4911C15.0959 15.6532 16.7128 15.4076 18.2132 15.7991C18.5892 15.8975 18.9742 15.6719 19.0723 15.2956C19.1705 14.9193 18.945 14.5346 18.5687 14.4364Z"></path>
<path d="M29.059 30.0477C28.7046 29.8873 28.2874 30.0448 28.1271 30.399C26.6204 33.7289 21.9227 33.9962 20.0734 30.793C20.0004 30.6662 19.932 30.5332 19.8704 30.3977C19.7091 30.0437 19.2917 29.8871 18.9377 30.0483C18.5837 30.2094 18.4273 30.627 18.5882 30.9809C18.6686 31.1575 18.7579 31.3311 18.8536 31.497C21.2795 35.6986 27.437 35.3412 29.4104 30.9795C29.5706 30.6252 29.4132 30.2081 29.059 30.0477Z"></path>
<path d="M30.2076 0.829287C19.7762 -1.96578 12.1281 3.19591 11.9567 3.25394C11.6198 3.44819 11.5043 3.87888 11.6985 4.21582C11.8929 4.55285 12.3235 4.66826 12.6604 4.47401C12.962 4.37182 20.0566 -0.432682 29.8431 2.18951C46.6828 6.70179 52.3078 27.9079 39.8013 40.1375C39.5232 40.4094 39.5181 40.8553 39.7902 41.1333C40.0605 41.4101 40.5065 41.4178 40.7859 41.1445C54.0795 28.146 48.0915 5.62104 30.2076 0.829287Z"></path>
<path d="M38.3429 42.3576C38.1133 42.0438 37.6724 41.9758 37.3588 42.2053C31.8305 46.252 24.8571 47.6079 18.1542 45.8119C6.49716 42.6884 -0.418491 31.113 1.84266 19.644C2.88882 14.3384 5.79413 9.5862 10.0233 6.26276C10.3291 6.02248 10.3822 5.57979 10.142 5.27398C9.90151 4.96817 9.45901 4.9152 9.1532 5.15529C4.6591 8.68686 1.5722 13.7356 0.460884 19.3715C-2.43965 34.0817 8.78785 48.0004 24.0375 48C29.2461 47.9999 34.1666 46.2872 38.1907 43.3418C38.5045 43.1121 38.5726 42.6714 38.3429 42.3576Z"></path>
</svg>
