<svg width="48" height="48" viewBox="0 0 48 48" xmlns="http://www.w3.org/2000/svg">
<path d="M16.6202 16.0151C15.0583 16.0151 13.7876 17.5484 13.7876 19.433C13.7876 21.3175 15.0583 22.8507 16.6202 22.8507C18.182 22.8507 19.4527 21.3175 19.4527 19.433C19.4527 17.5484 18.182 16.0151 16.6202 16.0151ZM16.6202 21.4421C15.8483 21.4421 15.1962 20.522 15.1962 19.433C15.1962 18.3438 15.8483 17.4237 16.6202 17.4237C17.392 17.4237 18.0441 18.3439 18.0441 19.433C18.0441 20.5221 17.392 21.4421 16.6202 21.4421Z"></path>
<path d="M31.3934 16.0151C29.8315 16.0151 28.5608 17.5484 28.5608 19.433C28.5608 21.3175 29.8315 22.8507 31.3934 22.8507C32.9552 22.8507 34.2259 21.3175 34.2259 19.433C34.2259 17.5484 32.9552 16.0151 31.3934 16.0151ZM31.3932 21.4421C30.6213 21.4421 29.9692 20.5219 29.9692 19.433C29.9692 18.3438 30.6213 17.4237 31.3932 17.4237C32.165 17.4237 32.8171 18.3439 32.8171 19.433C32.8171 20.5221 32.165 21.4421 31.3932 21.4421Z"></path>
<path d="M24.4683 30.2813C22.8402 30.6443 21.3682 31.3555 20.4298 32.2326C19.9657 32.6664 20.2732 33.4514 20.9109 33.4514C21.0832 33.4514 21.2558 33.3886 21.3917 33.2617C23.5512 31.2434 28.3361 30.8946 29.4726 32.2273C29.725 32.5233 30.1695 32.5586 30.4655 32.3063C31.5311 31.3976 28.976 29.2765 24.4683 30.2813Z"></path>
<path d="M38.8647 5.15303C38.5593 4.91237 38.1165 4.96487 37.8756 5.27031C37.635 5.57575 37.6874 6.01862 37.9929 6.25937C50.513 16.125 49.1287 35.5712 35.2989 43.5559C28.0038 47.7679 19.0443 47.5842 11.9173 43.0767C11.5886 42.8688 11.1536 42.9667 10.9456 43.2955C10.7376 43.6243 10.8356 44.0594 11.1644 44.2672C18.6006 48.9701 28.1176 49.3287 36.0033 44.7757C50.691 36.2959 52.1711 15.638 38.8647 5.15303Z"></path>
<path d="M36.0631 3.24945C22.4508 -4.64308 4.93694 2.4716 0.833033 17.7881C-1.658 27.0848 1.65794 36.4772 8.43831 42.2583C8.57088 42.3713 8.73335 42.4266 8.89488 42.4266C9.54841 42.4266 9.84803 41.6092 9.35219 41.1864C-2.49603 31.0842 -0.801779 12.244 12.7159 4.4397C19.7569 0.374698 28.37 0.417261 35.3567 4.4681C35.6929 4.6632 36.1243 4.54864 36.3192 4.21198C36.5143 3.87551 36.3996 3.44454 36.0631 3.24945Z"></path>
</svg>
